<?xml version="1.0" encoding="utf-8" standalone="no"?>
<!DOCTYPE svg PUBLIC "-//W3C//DTD SVG 1.1//EN"
  "http://www.w3.org/Graphics/SVG/1.1/DTD/svg11.dtd">
<svg xmlns:xlink="http://www.w3.org/1999/xlink" width="575.9pt" height="350.54pt" viewBox="0 0 575.9 350.54" xmlns="http://www.w3.org/2000/svg" version="1.1">
 <metadata>
  <rdf:RDF xmlns:dc="http://purl.org/dc/elements/1.1/" xmlns:cc="http://creativecommons.org/ns#" xmlns:rdf="http://www.w3.org/1999/02/22-rdf-syntax-ns#">
   <cc:Work>
    <dc:type rdf:resource="http://purl.org/dc/dcmitype/StillImage"/>
    <dc:date>2024-03-27T11:41:10.439031</dc:date>
    <dc:format>image/svg+xml</dc:format>
    <dc:creator>
     <cc:Agent>
      <dc:title>Matplotlib v3.6.0, https://matplotlib.org/</dc:title>
     </cc:Agent>
    </dc:creator>
   </cc:Work>
  </rdf:RDF>
 </metadata>
 <defs>
  <style type="text/css">*{stroke-linejoin: round; stroke-linecap: butt}</style>
 </defs>
 <g id="figure_1">
  <g id="patch_1">
   <path d="M 0 350.54 
L 575.9 350.54 
L 575.9 0 
L 0 0 
z
" style="fill: #ffffff"/>
  </g>
  <g id="axes_1">
   <g id="patch_2">
    <path d="M 10.7 339.84 
L 568.7 339.84 
L 568.7 7.2 
L 10.7 7.2 
z
" style="fill: #ffffff"/>
   </g>
   <g id="matplotlib.axis_1"/>
   <g id="matplotlib.axis_2"/>
   <g id="line2d_1">
    <path d="M 36.063636 334.009386 
L 41.187603 333.241302 
L 46.31157 332.390683 
L 51.435537 331.451411 
L 56.559504 330.417294 
L 61.683471 329.282122 
L 66.807438 328.039731 
L 71.931405 326.684074 
L 77.055372 325.209297 
L 82.179339 323.609823 
L 87.303306 321.880445 
L 92.427273 320.016417 
L 97.55124 318.013555 
L 102.675207 315.86834 
L 107.799174 313.578019 
L 112.92314 311.140713 
L 118.047107 308.555515 
L 123.171074 305.822595 
L 128.295041 302.943294 
L 133.419008 299.920206 
L 138.542975 296.757267 
L 143.666942 293.459816 
L 148.790909 290.034656 
L 153.914876 286.49009 
L 159.038843 282.835952 
L 164.16281 279.083608 
L 169.286777 275.245951 
L 174.410744 271.33736 
L 179.534711 267.373652 
L 184.658678 263.372005 
L 189.782645 259.350858 
L 194.906612 255.329795 
L 200.030579 251.329402 
L 205.154545 247.371107 
L 210.278512 243.477002 
L 215.402479 239.669645 
L 220.526446 235.971852 
L 225.650413 232.406474 
L 230.77438 228.996168 
L 235.898347 225.763156 
L 241.022314 222.72899 
L 246.146281 219.914311 
L 251.270248 217.338621 
L 256.394215 215.020051 
L 261.518182 212.975157 
L 266.642149 211.218718 
L 271.766116 209.763558 
L 276.890083 208.620395 
L 282.01405 207.797705 
L 287.138017 207.301616 
L 292.261983 207.13584 
L 297.38595 207.301616 
L 302.509917 207.797705 
L 307.633884 208.620395 
L 312.757851 209.763558 
L 317.881818 211.218718 
L 323.005785 212.975157 
L 328.129752 215.020051 
L 333.253719 217.338621 
L 338.377686 219.914311 
L 343.501653 222.72899 
L 348.62562 225.763156 
L 353.749587 228.996168 
L 358.873554 232.406474 
L 363.997521 235.971852 
L 369.121488 239.669645 
L 374.245455 243.477002 
L 379.369421 247.371107 
L 384.493388 251.329402 
L 389.617355 255.329795 
L 394.741322 259.350858 
L 399.865289 263.372005 
L 404.989256 267.373652 
L 410.113223 271.33736 
L 415.23719 275.245951 
L 420.361157 279.083608 
L 425.485124 282.835952 
L 430.609091 286.49009 
L 435.733058 290.034656 
L 440.857025 293.459816 
L 445.980992 296.757267 
L 451.104959 299.920206 
L 456.228926 302.943294 
L 461.352893 305.822595 
L 466.47686 308.555515 
L 471.600826 311.140713 
L 476.724793 313.578019 
L 481.84876 315.86834 
L 486.972727 318.013555 
L 492.096694 320.016417 
L 497.220661 321.880445 
L 502.344628 323.609823 
L 507.468595 325.209297 
L 512.592562 326.684074 
L 517.716529 328.039731 
L 522.840496 329.282122 
L 527.964463 330.417294 
L 533.08843 331.451411 
L 538.212397 332.390683 
L 543.336364 333.241302 
" clip-path="url(#p4a73c19101)" style="fill: none; stroke: #0000ff; stroke-width: 3; stroke-linecap: square"/>
   </g>
   <g id="line2d_2">
    <path d="M 36.063636 339.839011 
L 41.187603 339.838377 
L 46.31157 339.837365 
L 51.435537 339.835762 
L 56.559504 339.833253 
L 61.683471 339.829366 
L 66.807438 339.823406 
L 71.931405 339.814363 
L 77.055372 339.800786 
L 82.179339 339.780616 
L 87.303306 339.750965 
L 92.427273 339.707838 
L 97.55124 339.645774 
L 102.675207 339.557402 
L 107.799174 339.432914 
L 112.92314 339.259422 
L 118.047107 339.020229 
L 123.171074 338.694009 
L 128.295041 338.253914 
L 133.419008 337.666651 
L 138.542975 336.89158 
L 143.666942 335.879899 
L 148.790909 334.574008 
L 153.914876 332.90716 
L 159.038843 330.803522 
L 164.16281 328.178772 
L 169.286777 324.941367 
L 174.410744 320.994588 
L 179.534711 316.239463 
L 184.658678 310.578593 
L 189.782645 303.92089 
L 194.906612 296.187111 
L 200.030579 287.316039 
L 205.154545 277.27103 
L 210.278512 266.046587 
L 215.402479 253.674534 
L 220.526446 240.229312 
L 225.650413 225.831903 
L 230.77438 210.651901 
L 235.898347 194.907304 
L 241.022314 178.861716 
L 246.146281 162.818805 
L 251.270248 147.114004 
L 256.394215 132.103703 
L 261.518182 118.152336 
L 266.642149 105.617979 
L 271.766116 94.837241 
L 276.890083 86.110314 
L 282.01405 79.687117 
L 287.138017 75.755409 
L 292.261983 74.43168 
L 297.38595 75.755409 
L 302.509917 79.687117 
L 307.633884 86.110314 
L 312.757851 94.837241 
L 317.881818 105.617979 
L 323.005785 118.152336 
L 328.129752 132.103703 
L 333.253719 147.114004 
L 338.377686 162.818805 
L 343.501653 178.861716 
L 348.62562 194.907304 
L 353.749587 210.651901 
L 358.873554 225.831903 
L 363.997521 240.229312 
L 369.121488 253.674534 
L 374.245455 266.046587 
L 379.369421 277.27103 
L 384.493388 287.316039 
L 389.617355 296.187111 
L 394.741322 303.92089 
L 399.865289 310.578593 
L 404.989256 316.239463 
L 410.113223 320.994588 
L 415.23719 324.941367 
L 420.361157 328.178772 
L 425.485124 330.803522 
L 430.609091 332.90716 
L 435.733058 334.574008 
L 440.857025 335.879899 
L 445.980992 336.89158 
L 451.104959 337.666651 
L 456.228926 338.253914 
L 461.352893 338.694009 
L 466.47686 339.020229 
L 471.600826 339.259422 
L 476.724793 339.432914 
L 481.84876 339.557402 
L 486.972727 339.645774 
L 492.096694 339.707838 
L 497.220661 339.750965 
L 502.344628 339.780616 
L 507.468595 339.800786 
L 512.592562 339.814363 
L 517.716529 339.823406 
L 522.840496 339.829366 
L 527.964463 339.833253 
L 533.08843 339.835762 
L 538.212397 339.837365 
L 543.336364 339.838377 
" clip-path="url(#p4a73c19101)" style="fill: none; stroke: #ff0000; stroke-width: 3; stroke-linecap: square"/>
   </g>
   <g id="patch_3">
    <path d="M 10.7 339.84 
L 10.7 7.2 
" style="fill: none; stroke: #ffffff; stroke-linejoin: miter; stroke-linecap: square"/>
   </g>
   <g id="patch_4">
    <path d="M 568.7 339.84 
L 568.7 7.2 
" style="fill: none; stroke: #ffffff; stroke-linejoin: miter; stroke-linecap: square"/>
   </g>
   <g id="patch_5">
    <path d="M 10.7 339.84 
L 568.7 339.84 
" style="fill: none; stroke: #ffffff; stroke-linejoin: miter; stroke-linecap: square"/>
   </g>
   <g id="patch_6">
    <path d="M 10.7 7.2 
L 568.7 7.2 
" style="fill: none; stroke: #ffffff; stroke-linejoin: miter; stroke-linecap: square"/>
   </g>
   <g id="text_1">
    <!-- Loss = KL(P||Q) -->
    <g transform="translate(187.983594 34.464) scale(0.3 -0.3)">
     <defs>
      <path id="TimesNewRomanPS-ItalicMT-4c" d="M 2934 0 
L -206 0 
L -163 116 
Q 88 122 172 156 
Q 303 213 366 303 
Q 463 447 572 822 
L 1319 3400 
Q 1413 3719 1413 3869 
Q 1413 3988 1327 4053 
Q 1241 4119 1003 4119 
Q 950 4119 919 4122 
L 956 4238 
L 2684 4238 
L 2659 4122 
Q 2369 4122 2247 4065 
Q 2125 4009 2044 3881 
Q 1988 3797 1859 3356 
L 1125 822 
Q 1041 534 1041 422 
Q 1041 347 1125 278 
Q 1178 231 1366 231 
L 1775 231 
Q 2222 231 2484 344 
Q 2678 428 2841 597 
Q 2928 691 3150 1063 
L 3231 1203 
L 3347 1203 
L 2934 0 
z
" transform="scale(0.015625)"/>
      <path id="TimesNewRomanPS-ItalicMT-6f" d="M 2959 1850 
Q 2959 1381 2711 922 
Q 2463 463 2019 194 
Q 1575 -75 1156 -75 
Q 728 -75 458 198 
Q 188 472 188 906 
Q 188 1366 452 1828 
Q 716 2291 1158 2559 
Q 1600 2828 2013 2828 
Q 2425 2828 2692 2556 
Q 2959 2284 2959 1850 
z
M 2441 2066 
Q 2441 2356 2298 2511 
Q 2156 2666 1931 2666 
Q 1472 2666 1086 2008 
Q 700 1350 700 700 
Q 700 403 850 242 
Q 1000 81 1228 81 
Q 1669 81 2055 736 
Q 2441 1391 2441 2066 
z
" transform="scale(0.015625)"/>
      <path id="TimesNewRomanPS-ItalicMT-73" d="M 2322 2828 
L 2131 1869 
L 2016 1869 
Q 2000 2288 1837 2478 
Q 1675 2669 1434 2669 
Q 1241 2669 1127 2562 
Q 1013 2456 1013 2306 
Q 1013 2203 1058 2109 
Q 1103 2016 1256 1847 
Q 1663 1403 1781 1178 
Q 1900 953 1900 753 
Q 1900 428 1629 176 
Q 1359 -75 947 -75 
Q 722 -75 428 31 
Q 325 69 269 69 
Q 128 69 56 -75 
L -59 -75 
L 131 938 
L 247 938 
Q 266 463 444 266 
Q 622 69 931 69 
Q 1169 69 1308 201 
Q 1447 334 1447 528 
Q 1447 653 1397 759 
Q 1309 947 1029 1278 
Q 750 1609 670 1775 
Q 591 1941 591 2106 
Q 591 2409 811 2618 
Q 1031 2828 1378 2828 
Q 1478 2828 1559 2813 
Q 1603 2803 1764 2742 
Q 1925 2681 1978 2681 
Q 2113 2681 2203 2828 
L 2322 2828 
z
" transform="scale(0.015625)"/>
      <path id="TimesNewRomanPS-ItalicMT-20" transform="scale(0.015625)"/>
      <path id="TimesNewRomanPS-ItalicMT-3d" d="M 625 2759 
L 3997 2759 
L 3997 2503 
L 625 2503 
L 625 2759 
z
M 625 1741 
L 3997 1741 
L 3997 1484 
L 625 1484 
L 625 1741 
z
" transform="scale(0.015625)"/>
      <path id="TimesNewRomanPS-ItalicMT-4b" d="M 2044 2409 
L 3094 788 
Q 3375 356 3559 236 
Q 3744 116 4044 116 
L 4009 0 
L 2203 0 
L 2231 116 
Q 2447 138 2536 219 
Q 2625 300 2625 403 
Q 2625 497 2594 584 
Q 2569 647 2413 891 
L 1553 2238 
L 1138 834 
Q 1034 497 1034 381 
Q 1034 263 1121 200 
Q 1209 138 1553 116 
L 1503 0 
L -172 0 
L -131 116 
Q 113 122 197 159 
Q 322 216 381 303 
Q 463 431 581 834 
L 1328 3394 
Q 1413 3688 1413 3866 
Q 1413 3991 1333 4056 
Q 1253 4122 1022 4122 
L 959 4122 
L 997 4238 
L 2588 4238 
L 2556 4122 
Q 2359 4125 2263 4078 
Q 2128 4013 2065 3909 
Q 2003 3806 1881 3394 
L 1553 2306 
L 3059 3441 
Q 3359 3666 3453 3797 
Q 3509 3878 3509 3944 
Q 3509 4000 3451 4053 
Q 3394 4106 3275 4122 
L 3306 4238 
L 4663 4238 
L 4634 4122 
Q 4413 4084 4261 4023 
Q 4109 3963 3950 3856 
Q 3903 3825 3341 3394 
L 2044 2409 
z
" transform="scale(0.015625)"/>
      <path id="TimesNewRomanPS-ItalicMT-28" d="M 1203 -1319 
L 1097 -1369 
Q 725 -659 563 -116 
Q 438 309 438 741 
Q 438 1747 903 2544 
Q 1475 3519 2756 4444 
L 2831 4334 
Q 2253 3906 1888 3375 
Q 1431 2713 1140 1775 
Q 850 838 850 69 
Q 850 -519 1203 -1319 
z
" transform="scale(0.015625)"/>
      <path id="TimesNewRomanPS-ItalicMT-50" d="M 1000 4238 
L 2669 4238 
Q 3325 4238 3650 3955 
Q 3975 3672 3975 3266 
Q 3975 2944 3769 2641 
Q 3563 2338 3156 2148 
Q 2750 1959 2278 1959 
Q 1984 1959 1531 2066 
L 1194 909 
Q 1075 497 1075 366 
Q 1075 266 1159 200 
Q 1244 134 1563 116 
L 1531 0 
L -153 0 
L -119 116 
Q 213 116 342 230 
Q 472 344 622 859 
L 1322 3272 
Q 1447 3706 1447 3853 
Q 1447 3963 1358 4034 
Q 1269 4106 966 4122 
L 1000 4238 
z
M 1584 2263 
Q 1938 2172 2153 2172 
Q 2494 2172 2773 2312 
Q 3053 2453 3211 2734 
Q 3369 3016 3369 3319 
Q 3369 3634 3175 3818 
Q 2981 4003 2588 4003 
Q 2375 4003 2072 3950 
L 1584 2263 
z
" transform="scale(0.015625)"/>
      <path id="TimesNewRomanPS-ItalicMT-7c" d="M 1000 4444 
L 1000 -1381 
L 741 -1381 
L 741 4444 
L 1000 4444 
z
" transform="scale(0.015625)"/>
      <path id="TimesNewRomanPS-ItalicMT-51" d="M 1872 -97 
L 1066 -750 
Q 1256 -716 1419 -716 
Q 1575 -716 1708 -734 
Q 1841 -753 2277 -851 
Q 2713 -950 3038 -950 
Q 3384 -950 3626 -829 
Q 3869 -709 4097 -428 
L 4200 -478 
Q 3878 -941 3440 -1145 
Q 3003 -1350 2513 -1350 
Q 2241 -1350 1769 -1244 
Q 1047 -1084 759 -1084 
Q 650 -1084 581 -1100 
Q 513 -1116 375 -1175 
L 303 -1091 
L 1584 -78 
Q 991 3 684 443 
Q 378 884 378 1384 
Q 378 2069 792 2800 
Q 1206 3531 1851 3932 
Q 2497 4334 3119 4334 
Q 3581 4334 3907 4146 
Q 4234 3959 4412 3601 
Q 4591 3244 4591 2869 
Q 4591 2150 4181 1412 
Q 3772 675 3164 295 
Q 2556 -84 1872 -97 
z
M 3044 4134 
Q 2731 4134 2432 3979 
Q 2134 3825 1840 3473 
Q 1547 3122 1313 2553 
Q 1028 1853 1028 1231 
Q 1028 788 1256 445 
Q 1484 103 1956 103 
Q 2238 103 2513 243 
Q 2788 384 3081 722 
Q 3456 1153 3709 1818 
Q 3963 2484 3963 3056 
Q 3963 3478 3734 3806 
Q 3506 4134 3044 4134 
z
" transform="scale(0.015625)"/>
      <path id="TimesNewRomanPS-ItalicMT-29" d="M 931 4384 
L 1038 4444 
Q 1409 3738 1569 3194 
Q 1697 2769 1697 2338 
Q 1697 1328 1231 534 
Q 656 -444 -622 -1369 
L -697 -1272 
Q -119 -841 247 -313 
Q 703 350 993 1289 
Q 1284 2228 1284 2997 
Q 1284 3584 931 4384 
z
" transform="scale(0.015625)"/>
     </defs>
     <use xlink:href="#TimesNewRomanPS-ItalicMT-4c"/>
     <use xlink:href="#TimesNewRomanPS-ItalicMT-6f" x="55.615234"/>
     <use xlink:href="#TimesNewRomanPS-ItalicMT-73" x="105.615234"/>
     <use xlink:href="#TimesNewRomanPS-ItalicMT-73" x="144.53125"/>
     <use xlink:href="#TimesNewRomanPS-ItalicMT-20" x="183.447266"/>
     <use xlink:href="#TimesNewRomanPS-ItalicMT-3d" x="208.447266"/>
     <use xlink:href="#TimesNewRomanPS-ItalicMT-20" x="275.927734"/>
     <use xlink:href="#TimesNewRomanPS-ItalicMT-4b" x="300.927734"/>
     <use xlink:href="#TimesNewRomanPS-ItalicMT-4c" x="367.626953"/>
     <use xlink:href="#TimesNewRomanPS-ItalicMT-28" x="423.242188"/>
     <use xlink:href="#TimesNewRomanPS-ItalicMT-50" x="456.542969"/>
     <use xlink:href="#TimesNewRomanPS-ItalicMT-7c" x="517.626953"/>
     <use xlink:href="#TimesNewRomanPS-ItalicMT-7c" x="545.117188"/>
     <use xlink:href="#TimesNewRomanPS-ItalicMT-51" x="572.607422"/>
     <use xlink:href="#TimesNewRomanPS-ItalicMT-29" x="644.824219"/>
    </g>
   </g>
  </g>
 </g>
 <defs>
  <clipPath id="p4a73c19101">
   <rect x="10.7" y="7.2" width="558" height="332.64"/>
  </clipPath>
 </defs>
</svg>
