<?xml version="1.0" encoding="utf-8" standalone="no"?>
<!DOCTYPE svg PUBLIC "-//W3C//DTD SVG 1.1//EN"
  "http://www.w3.org/Graphics/SVG/1.1/DTD/svg11.dtd">
<svg xmlns:xlink="http://www.w3.org/1999/xlink" width="575.9pt" height="350.54pt" viewBox="0 0 575.9 350.54" xmlns="http://www.w3.org/2000/svg" version="1.1">
 <metadata>
  <rdf:RDF xmlns:dc="http://purl.org/dc/elements/1.1/" xmlns:cc="http://creativecommons.org/ns#" xmlns:rdf="http://www.w3.org/1999/02/22-rdf-syntax-ns#">
   <cc:Work>
    <dc:type rdf:resource="http://purl.org/dc/dcmitype/StillImage"/>
    <dc:date>2024-03-25T16:11:52.001857</dc:date>
    <dc:format>image/svg+xml</dc:format>
    <dc:creator>
     <cc:Agent>
      <dc:title>Matplotlib v3.6.0, https://matplotlib.org/</dc:title>
     </cc:Agent>
    </dc:creator>
   </cc:Work>
  </rdf:RDF>
 </metadata>
 <defs>
  <style type="text/css">*{stroke-linejoin: round; stroke-linecap: butt}</style>
 </defs>
 <g id="figure_1">
  <g id="patch_1">
   <path d="M 0 350.54 
L 575.9 350.54 
L 575.9 0 
L 0 0 
z
" style="fill: #ffffff"/>
  </g>
  <g id="axes_1">
   <g id="patch_2">
    <path d="M 10.7 339.84 
L 568.7 339.84 
L 568.7 7.2 
L 10.7 7.2 
z
" style="fill: #ffffff"/>
   </g>
   <g id="matplotlib.axis_1"/>
   <g id="matplotlib.axis_2"/>
   <g id="line2d_1">
    <path d="M 36.063636 334.009386 
L 41.187603 333.241302 
L 46.31157 332.390683 
L 51.435537 331.451411 
L 56.559504 330.417294 
L 61.683471 329.282122 
L 66.807438 328.039731 
L 71.931405 326.684074 
L 77.055372 325.209297 
L 82.179339 323.609823 
L 87.303306 321.880445 
L 92.427273 320.016417 
L 97.55124 318.013555 
L 102.675207 315.86834 
L 107.799174 313.578019 
L 112.92314 311.140713 
L 118.047107 308.555515 
L 123.171074 305.822595 
L 128.295041 302.943294 
L 133.419008 299.920206 
L 138.542975 296.757267 
L 143.666942 293.459816 
L 148.790909 290.034656 
L 153.914876 286.49009 
L 159.038843 282.835952 
L 164.16281 279.083608 
L 169.286777 275.245951 
L 174.410744 271.33736 
L 179.534711 267.373652 
L 184.658678 263.372005 
L 189.782645 259.350858 
L 194.906612 255.329795 
L 200.030579 251.329402 
L 205.154545 247.371107 
L 210.278512 243.477002 
L 215.402479 239.669645 
L 220.526446 235.971852 
L 225.650413 232.406474 
L 230.77438 228.996168 
L 235.898347 225.763156 
L 241.022314 222.72899 
L 246.146281 219.914311 
L 251.270248 217.338621 
L 256.394215 215.020051 
L 261.518182 212.975157 
L 266.642149 211.218718 
L 271.766116 209.763558 
L 276.890083 208.620395 
L 282.01405 207.797705 
L 287.138017 207.301616 
L 292.261983 207.13584 
L 297.38595 207.301616 
L 302.509917 207.797705 
L 307.633884 208.620395 
L 312.757851 209.763558 
L 317.881818 211.218718 
L 323.005785 212.975157 
L 328.129752 215.020051 
L 333.253719 217.338621 
L 338.377686 219.914311 
L 343.501653 222.72899 
L 348.62562 225.763156 
L 353.749587 228.996168 
L 358.873554 232.406474 
L 363.997521 235.971852 
L 369.121488 239.669645 
L 374.245455 243.477002 
L 379.369421 247.371107 
L 384.493388 251.329402 
L 389.617355 255.329795 
L 394.741322 259.350858 
L 399.865289 263.372005 
L 404.989256 267.373652 
L 410.113223 271.33736 
L 415.23719 275.245951 
L 420.361157 279.083608 
L 425.485124 282.835952 
L 430.609091 286.49009 
L 435.733058 290.034656 
L 440.857025 293.459816 
L 445.980992 296.757267 
L 451.104959 299.920206 
L 456.228926 302.943294 
L 461.352893 305.822595 
L 466.47686 308.555515 
L 471.600826 311.140713 
L 476.724793 313.578019 
L 481.84876 315.86834 
L 486.972727 318.013555 
L 492.096694 320.016417 
L 497.220661 321.880445 
L 502.344628 323.609823 
L 507.468595 325.209297 
L 512.592562 326.684074 
L 517.716529 328.039731 
L 522.840496 329.282122 
L 527.964463 330.417294 
L 533.08843 331.451411 
L 538.212397 332.390683 
L 543.336364 333.241302 
" clip-path="url(#p1391e2e440)" style="fill: none; stroke: #0000ff; stroke-width: 3; stroke-linecap: square"/>
   </g>
   <g id="line2d_2">
    <path d="M 36.063636 339.839011 
L 41.187603 339.838377 
L 46.31157 339.837365 
L 51.435537 339.835762 
L 56.559504 339.833253 
L 61.683471 339.829366 
L 66.807438 339.823406 
L 71.931405 339.814363 
L 77.055372 339.800786 
L 82.179339 339.780616 
L 87.303306 339.750965 
L 92.427273 339.707838 
L 97.55124 339.645774 
L 102.675207 339.557402 
L 107.799174 339.432914 
L 112.92314 339.259422 
L 118.047107 339.020229 
L 123.171074 338.694009 
L 128.295041 338.253914 
L 133.419008 337.666651 
L 138.542975 336.89158 
L 143.666942 335.879899 
L 148.790909 334.574008 
L 153.914876 332.90716 
L 159.038843 330.803522 
L 164.16281 328.178772 
L 169.286777 324.941367 
L 174.410744 320.994588 
L 179.534711 316.239463 
L 184.658678 310.578593 
L 189.782645 303.92089 
L 194.906612 296.187111 
L 200.030579 287.316039 
L 205.154545 277.27103 
L 210.278512 266.046587 
L 215.402479 253.674534 
L 220.526446 240.229312 
L 225.650413 225.831903 
L 230.77438 210.651901 
L 235.898347 194.907304 
L 241.022314 178.861716 
L 246.146281 162.818805 
L 251.270248 147.114004 
L 256.394215 132.103703 
L 261.518182 118.152336 
L 266.642149 105.617979 
L 271.766116 94.837241 
L 276.890083 86.110314 
L 282.01405 79.687117 
L 287.138017 75.755409 
L 292.261983 74.43168 
L 297.38595 75.755409 
L 302.509917 79.687117 
L 307.633884 86.110314 
L 312.757851 94.837241 
L 317.881818 105.617979 
L 323.005785 118.152336 
L 328.129752 132.103703 
L 333.253719 147.114004 
L 338.377686 162.818805 
L 343.501653 178.861716 
L 348.62562 194.907304 
L 353.749587 210.651901 
L 358.873554 225.831903 
L 363.997521 240.229312 
L 369.121488 253.674534 
L 374.245455 266.046587 
L 379.369421 277.27103 
L 384.493388 287.316039 
L 389.617355 296.187111 
L 394.741322 303.92089 
L 399.865289 310.578593 
L 404.989256 316.239463 
L 410.113223 320.994588 
L 415.23719 324.941367 
L 420.361157 328.178772 
L 425.485124 330.803522 
L 430.609091 332.90716 
L 435.733058 334.574008 
L 440.857025 335.879899 
L 445.980992 336.89158 
L 451.104959 337.666651 
L 456.228926 338.253914 
L 461.352893 338.694009 
L 466.47686 339.020229 
L 471.600826 339.259422 
L 476.724793 339.432914 
L 481.84876 339.557402 
L 486.972727 339.645774 
L 492.096694 339.707838 
L 497.220661 339.750965 
L 502.344628 339.780616 
L 507.468595 339.800786 
L 512.592562 339.814363 
L 517.716529 339.823406 
L 522.840496 339.829366 
L 527.964463 339.833253 
L 533.08843 339.835762 
L 538.212397 339.837365 
L 543.336364 339.838377 
" clip-path="url(#p1391e2e440)" style="fill: none; stroke: #ff0000; stroke-width: 3; stroke-linecap: square"/>
   </g>
   <g id="patch_3">
    <path d="M 10.7 339.84 
L 10.7 7.2 
" style="fill: none; stroke: #ffffff; stroke-linejoin: miter; stroke-linecap: square"/>
   </g>
   <g id="patch_4">
    <path d="M 568.7 339.84 
L 568.7 7.2 
" style="fill: none; stroke: #ffffff; stroke-linejoin: miter; stroke-linecap: square"/>
   </g>
   <g id="patch_5">
    <path d="M 10.7 339.84 
L 568.7 339.84 
" style="fill: none; stroke: #ffffff; stroke-linejoin: miter; stroke-linecap: square"/>
   </g>
   <g id="patch_6">
    <path d="M 10.7 7.2 
L 568.7 7.2 
" style="fill: none; stroke: #ffffff; stroke-linejoin: miter; stroke-linecap: square"/>
   </g>
   <g id="text_1">
    <!-- loss = KL(P||Q) -->
    <g transform="translate(213.5825 34.464) scale(0.24 -0.24)">
     <defs>
      <path id="TimesNewRomanPS-BoldItalicMT-6c" d="M 2025 4334 
L 991 816 
Q 900 503 900 425 
Q 900 384 926 356 
Q 953 328 984 328 
Q 1041 328 1091 372 
Q 1241 494 1425 784 
L 1547 728 
Q 1250 253 963 50 
Q 766 -88 544 -88 
Q 338 -88 216 23 
Q 94 134 94 291 
Q 94 406 169 663 
L 1013 3544 
Q 1081 3781 1081 3859 
Q 1081 3934 1016 3978 
Q 928 4041 750 4031 
L 784 4150 
L 1838 4334 
L 2025 4334 
z
" transform="scale(0.015625)"/>
      <path id="TimesNewRomanPS-BoldItalicMT-6f" d="M 2103 2897 
Q 2350 2897 2567 2783 
Q 2784 2669 2895 2466 
Q 3006 2263 3006 2016 
Q 3006 1509 2723 1003 
Q 2441 497 1978 204 
Q 1516 -88 1047 -88 
Q 622 -88 389 165 
Q 156 419 156 784 
Q 156 1219 329 1598 
Q 503 1978 770 2261 
Q 1038 2544 1384 2720 
Q 1731 2897 2103 2897 
z
M 1975 2731 
Q 1809 2731 1700 2634 
Q 1481 2438 1206 1714 
Q 931 991 931 409 
Q 931 266 1018 172 
Q 1106 78 1225 78 
Q 1347 78 1441 153 
Q 1578 266 1778 658 
Q 1978 1050 2106 1523 
Q 2234 1997 2234 2391 
Q 2234 2553 2156 2642 
Q 2078 2731 1975 2731 
z
" transform="scale(0.015625)"/>
      <path id="TimesNewRomanPS-BoldItalicMT-73" d="M 2381 2897 
L 2244 1931 
L 2128 1931 
Q 2103 2306 1898 2522 
Q 1694 2738 1459 2738 
Q 1316 2738 1222 2653 
Q 1128 2569 1128 2450 
Q 1128 2350 1168 2262 
Q 1209 2175 1350 2025 
Q 1844 1494 1950 1294 
Q 2056 1094 2056 866 
Q 2056 619 1931 398 
Q 1806 178 1557 45 
Q 1309 -88 1041 -88 
Q 859 -88 594 -16 
Q 419 34 331 34 
Q 253 34 209 10 
Q 166 -13 113 -88 
L -3 -88 
L 150 953 
L 250 953 
Q 359 575 454 414 
Q 550 253 709 158 
Q 869 63 1016 63 
Q 1188 63 1300 170 
Q 1413 278 1413 428 
Q 1413 575 1339 712 
Q 1266 850 1000 1141 
Q 634 1538 519 1753 
Q 438 1909 438 2109 
Q 438 2447 683 2672 
Q 928 2897 1372 2897 
Q 1566 2897 1847 2828 
Q 1988 2794 2072 2794 
Q 2194 2794 2269 2897 
L 2381 2897 
z
" transform="scale(0.015625)"/>
      <path id="TimesNewRomanPS-BoldItalicMT-20" transform="scale(0.015625)"/>
      <path id="TimesNewRomanPS-BoldItalicMT-3d" d="M 250 2825 
L 3669 2825 
L 3669 2419 
L 250 2419 
L 250 2825 
z
M 250 1803 
L 3669 1803 
L 3669 1397 
L 250 1397 
L 250 1803 
z
" transform="scale(0.015625)"/>
      <path id="TimesNewRomanPS-BoldItalicMT-4b" d="M 3925 0 
L 2091 0 
L 2125 116 
Q 2306 131 2393 220 
Q 2481 309 2481 441 
Q 2481 581 2384 888 
L 1934 2331 
L 1488 784 
Q 1413 525 1413 409 
Q 1413 278 1516 198 
Q 1619 119 1888 116 
L 1853 0 
L -206 0 
L -172 116 
Q 75 122 197 181 
Q 319 241 391 366 
Q 463 491 563 844 
L 1275 3309 
Q 1397 3734 1397 3850 
Q 1397 3956 1298 4034 
Q 1200 4113 925 4122 
L 959 4238 
L 2953 4238 
L 2919 4122 
Q 2719 4122 2613 4063 
Q 2472 3981 2384 3825 
Q 2325 3722 2222 3347 
L 1934 2334 
L 3038 3347 
Q 3359 3644 3397 3703 
Q 3447 3781 3447 3869 
Q 3447 3963 3380 4031 
Q 3313 4100 3147 4122 
L 3181 4238 
L 4778 4238 
L 4744 4122 
Q 4559 4106 4444 4069 
Q 4291 4019 4094 3898 
Q 3897 3778 3694 3616 
L 3403 3347 
L 2731 2744 
L 3231 1181 
Q 3475 409 3609 268 
Q 3744 128 3959 116 
L 3925 0 
z
" transform="scale(0.015625)"/>
      <path id="TimesNewRomanPS-BoldItalicMT-4c" d="M 3178 0 
L -206 0 
L -172 116 
Q 131 116 270 233 
Q 409 350 528 759 
L 1316 3481 
Q 1381 3706 1381 3834 
Q 1381 3959 1287 4034 
Q 1194 4109 919 4122 
L 953 4238 
L 2988 4238 
L 2953 4122 
Q 2659 4116 2514 3991 
Q 2369 3866 2256 3481 
L 1538 991 
Q 1400 516 1400 413 
Q 1400 350 1470 295 
Q 1541 241 1697 241 
Q 2216 241 2698 478 
Q 3181 716 3516 1188 
L 3647 1188 
L 3178 0 
z
" transform="scale(0.015625)"/>
      <path id="TimesNewRomanPS-BoldItalicMT-28" d="M 2781 4334 
L 2725 4163 
Q 2278 3844 1984 3422 
Q 1534 2772 1251 1839 
Q 969 906 969 88 
Q 969 -434 1216 -1038 
L 1163 -1219 
Q 322 -94 322 1025 
Q 322 1669 603 2300 
Q 934 3038 1584 3609 
Q 2081 4047 2781 4334 
z
" transform="scale(0.015625)"/>
      <path id="TimesNewRomanPS-BoldItalicMT-50" d="M 1816 1947 
L 1472 766 
Q 1400 516 1400 413 
Q 1400 269 1494 195 
Q 1588 122 1919 116 
L 1878 0 
L -191 0 
L -156 116 
Q 106 119 215 167 
Q 325 216 397 325 
Q 450 397 556 766 
L 1341 3456 
Q 1422 3725 1422 3841 
Q 1422 3956 1319 4036 
Q 1216 4116 944 4122 
L 978 4238 
L 2656 4238 
Q 3347 4238 3650 4063 
Q 4119 3788 4119 3238 
Q 4119 2706 3651 2301 
Q 3184 1897 2394 1897 
Q 2156 1897 1816 1947 
z
M 1878 2188 
Q 2081 2163 2216 2163 
Q 2647 2163 2894 2556 
Q 3141 2950 3141 3378 
Q 3141 3669 2981 3830 
Q 2822 3991 2541 3991 
Q 2481 3991 2394 3984 
L 1878 2188 
z
" transform="scale(0.015625)"/>
      <path id="TimesNewRomanPS-BoldItalicMT-7c" d="M 497 -1381 
L 497 4334 
L 903 4334 
L 903 -1381 
L 497 -1381 
z
" transform="scale(0.015625)"/>
      <path id="TimesNewRomanPS-BoldItalicMT-51" d="M 1913 -97 
L 1363 -597 
Q 1672 -534 1869 -534 
Q 2141 -534 2634 -665 
Q 3128 -797 3413 -797 
Q 3725 -797 3991 -684 
Q 4156 -616 4331 -450 
L 4425 -538 
Q 4109 -922 3681 -1126 
Q 3253 -1331 2603 -1331 
Q 2238 -1331 1750 -1226 
Q 1263 -1122 975 -1122 
Q 747 -1122 488 -1191 
L 428 -1113 
L 1581 -97 
Q 1175 -28 959 122 
Q 666 322 503 670 
Q 341 1019 341 1388 
Q 341 2081 739 2786 
Q 1138 3491 1808 3912 
Q 2478 4334 3138 4334 
Q 3519 4334 3866 4143 
Q 4213 3953 4403 3604 
Q 4594 3256 4594 2881 
Q 4594 2322 4322 1733 
Q 4050 1144 3586 706 
Q 3122 269 2650 72 
Q 2331 -63 1913 -97 
z
M 3034 4081 
Q 2788 4081 2614 3992 
Q 2441 3903 2253 3693 
Q 2066 3484 1872 3095 
Q 1678 2706 1508 2037 
Q 1338 1369 1338 922 
Q 1338 541 1503 345 
Q 1669 150 1928 150 
Q 2272 150 2513 378 
Q 2991 831 3292 1707 
Q 3594 2584 3594 3269 
Q 3594 3697 3433 3889 
Q 3272 4081 3034 4081 
z
" transform="scale(0.015625)"/>
      <path id="TimesNewRomanPS-BoldItalicMT-29" d="M -722 -1219 
L -666 -1047 
Q -306 -791 -57 -484 
Q 191 -178 453 364 
Q 716 906 881 1525 
Q 1094 2328 1094 3028 
Q 1094 3550 847 4156 
L 897 4334 
Q 1738 3209 1738 2094 
Q 1738 1447 1456 816 
Q 1128 81 475 -491 
Q -22 -928 -722 -1219 
z
" transform="scale(0.015625)"/>
     </defs>
     <use xlink:href="#TimesNewRomanPS-BoldItalicMT-6c"/>
     <use xlink:href="#TimesNewRomanPS-BoldItalicMT-6f" x="27.783203"/>
     <use xlink:href="#TimesNewRomanPS-BoldItalicMT-73" x="77.783203"/>
     <use xlink:href="#TimesNewRomanPS-BoldItalicMT-73" x="116.699219"/>
     <use xlink:href="#TimesNewRomanPS-BoldItalicMT-20" x="155.615234"/>
     <use xlink:href="#TimesNewRomanPS-BoldItalicMT-3d" x="180.615234"/>
     <use xlink:href="#TimesNewRomanPS-BoldItalicMT-20" x="237.597656"/>
     <use xlink:href="#TimesNewRomanPS-BoldItalicMT-4b" x="262.597656"/>
     <use xlink:href="#TimesNewRomanPS-BoldItalicMT-4c" x="329.296875"/>
     <use xlink:href="#TimesNewRomanPS-BoldItalicMT-28" x="390.380859"/>
     <use xlink:href="#TimesNewRomanPS-BoldItalicMT-50" x="423.681641"/>
     <use xlink:href="#TimesNewRomanPS-BoldItalicMT-7c" x="484.765625"/>
     <use xlink:href="#TimesNewRomanPS-BoldItalicMT-7c" x="506.787109"/>
     <use xlink:href="#TimesNewRomanPS-BoldItalicMT-51" x="528.808594"/>
     <use xlink:href="#TimesNewRomanPS-BoldItalicMT-29" x="601.025391"/>
    </g>
   </g>
  </g>
 </g>
 <defs>
  <clipPath id="p1391e2e440">
   <rect x="10.7" y="7.2" width="558" height="332.64"/>
  </clipPath>
 </defs>
</svg>
